<?xml version="1.0" encoding="utf-8"?>
<!-- Generator: Adobe Illustrator 22.1.0, SVG Export Plug-In . SVG Version: 6.00 Build 0)  -->
<svg version="1.1" id="Capa_1" xmlns="http://www.w3.org/2000/svg" xmlns:xlink="http://www.w3.org/1999/xlink" x="0px" y="0px"
	 viewBox="0 0 46.4 46.4" style="enable-background:new 0 0 46.4 46.4;" xml:space="preserve">
<g>
	<g>
		<path d="M31.7,38.3c-0.8-0.8-2.1-0.9-2.9-0.2c-2.1,1.7-4.8,2.7-7.6,2.7c-6.8,0-12.3-5.5-12.3-12.3c0-3,1.1-5.8,3.1-8.1
			c0.6-0.7,0.6-1.8,0-2.4c-0.4-0.4-0.8-0.9-1.2-1.3c-0.3-0.4-0.8-0.6-1.3-0.6s-1,0.2-1.3,0.6c-1,1.1-1.9,2.3-2.6,3.7
			c-1.3,2.5-2,5.3-2,8.1c0,9.7,7.9,17.7,17.7,17.7c2.8,0,5.6-0.7,8.1-2c1.1-0.6,2.1-1.2,3-2c0.5-0.4,0.8-1,0.8-1.6
			c0-0.6-0.2-1.2-0.6-1.7L31.7,38.3z"/>
		<path d="M15.6,8.6c2.4,0,4.3-1.9,4.3-4.3C19.9,1.9,18,0,15.6,0s-4.3,1.9-4.3,4.3C11.3,6.7,13.2,8.6,15.6,8.6z"/>
		<path d="M42.9,43.2l-2.7-14.8c-0.2-0.9-0.7-1.7-1.5-2.3c-0.6-0.4-1.3-0.6-2-0.6c-0.2,0-0.5,0-0.7,0.1l-12.4,2.5c0,0-0.1,0-0.1,0
			c-0.3,0-0.6-0.2-0.6-0.5l-1-5l8.6-1.5c1.3-0.2,2.3-1.5,2-2.9c-0.2-1.2-1.2-2.1-2.4-2.1c-0.1,0-0.3,0-0.4,0L21,17.7l-1.1-5.5
			c-0.2-1.3-1.4-2.2-2.7-2.2c-0.2,0-0.3,0-0.5,0c-0.7,0.1-1.3,0.5-1.7,1.1c-0.4,0.6-0.6,1.3-0.4,2l3.6,18c0.2,0.9,0.7,1.7,1.5,2.2
			c0.6,0.4,1.2,0.6,1.9,0.6c0.2,0,0.5,0,0.7-0.1l12.4-2.5c0.2,0,0.4,0,0.5,0.1s0.2,0.3,0.3,0.4l2.2,12.2c0.2,1.3,1.3,2.2,2.7,2.2
			l0,0c0.2,0,0.3,0,0.5,0c0.7-0.1,1.3-0.5,1.7-1.1C42.9,44.7,43,43.9,42.9,43.2z"/>
	</g>
</g>
</svg>
